# xmcd
#
# Track frame offsets:
# 150
# 23250
# 42297
# 61050
# 82497
# 101297
# 119925
# 131250
# 149367
# 167700
# 191732
# 209547
# 225370
# 241662
#
# Disc length: 3453 seconds
#
#
# Revision: 0
# Processed by: cddbd v1.5.2PL0 Copyright (c) Steve Scherf et al.
# Submitted via: FreeRIP 2.942 
#
DISCID=ba0d7b0e
DTITLE=Maranatha Music - Take me to the Cross
DYEAR=2006
DGENRE=Contemporary Christian
TTITLE0=At the Cross
TTITLE1=Here is love
TTITLE2=Come let us worship and bow down
TTITLE3=Come just as you are
TTITLE4=When I survey the wondrous Cross
TTITLE5=The love of God
TTITLE6=You are my hiding place
TTITLE7=Father of life
TTITLE8=O Lord of hosts, how lovely
TTITLE9=Grace alone
TTITLE10=I come to the Cross
TTITLE11=Psalm 131
TTITLE12=These things are true of you
TTITLE13=Give me Jesus
EXTD=
EXTT0=
EXTT1=
EXTT2=
EXTT3=
EXTT4=
EXTT5=
EXTT6=
EXTT7=
EXTT8=
EXTT9=
EXTT10=
EXTT11=
EXTT12=
EXTT13=
PLAYORDER=
